# xmcd
#
# Track frame offsets:
#	150
#	15352
#	27547
#	41607
#	55355
#	66417
#	75165
#	87337
#	99630
#	109347
#	123060
#	134655
#	146877
#	162257
#	176017
#	185772
#
# Disc length: 2628 seconds
#
# Revision: 0
# Processed by: cddbd v1.5.2PL0 Copyright (c) Steve Scherf et al.
# Submitted via: dBpowerAMP V4.0
#
DISCID=e10a4210
DTITLE=Sydne Devine - Cryin Time
DYEAR=1900
DGENRE=Country
TTITLE0=I Can't Stop Loving You
TTITLE1=May The Bird Of Paradise Fly Up Your Nose
TTITLE2=Help Me Make It Through The Night
TTITLE3=Donna
TTITLE4=She Wears My Ring
TTITLE5=You're Sixteen
TTITLE6=Lovesick Blues
TTITLE7=Rose Marie
TTITLE8=Bye Bye Love
TTITLE9=The Blackboard Of My Heart
TTITLE10=It Keeps On A ' Hurtin'
TTITLE11=Send Me The Pilliow That You Dream On
TTITLE12=Fraulein
TTITLE13=Two Little Orphans
TTITLE14=Take This Chains From My Heart
TTITLE15=Cryin' Time
EXTD=
EXTT0=
EXTT1=
EXTT2=
EXTT3=
EXTT4=
EXTT5=
EXTT6=
EXTT7=
EXTT8=
EXTT9=
EXTT10=
EXTT11=
EXTT12=
EXTT13=
EXTT14=
EXTT15=
PLAYORDER=
